<svg width="56" height="56" viewBox="0 0 56 56" fill="none" xmlns="http://www.w3.org/2000/svg">
<g clip-path="url(#clip0_2004_146)">
<path d="M44.6303 51.443C42.4183 51.4299 40.0733 50.6284 38.0555 49.0902C36.9495 48.2484 36.7378 46.6682 37.5795 45.5639C38.423 44.4579 40.0006 44.2444 41.1058 45.0879C42.8479 46.4162 44.9531 46.8073 46.2263 46.0364C48.2449 44.8167 48.7156 42.4025 47.3708 40.1652C47.0505 39.6314 46.5176 38.9095 45.9524 38.1457C43.8489 35.301 40.9693 31.4055 41.6763 27.4925C42.028 25.543 43.1839 23.9182 45.1115 22.6652C47.2588 21.2695 49.7385 21.1488 51.9181 22.3405C54.376 23.6828 56.0166 26.4863 56 29.3169C55.9921 30.7064 54.859 31.8264 53.4695 31.8185C52.08 31.8107 50.96 30.6775 50.9679 29.288C50.9731 28.3028 50.3563 27.1942 49.5058 26.7558C48.3971 26.1844 46.8003 26.9203 46.6296 28.3868C46.4214 30.177 48.5301 33.1652 50.0001 35.1532C50.6389 36.0168 51.2409 36.8323 51.6871 37.5725C54.4618 42.1934 53.2333 47.684 48.8294 50.344C47.5904 51.0913 46.1423 51.4518 44.6303 51.443Z" fill="#FF9D2D"/>
<path opacity="0.09" d="M48.8268 50.3484C47.5948 51.0878 46.1388 51.4571 44.6268 51.4457C42.42 51.4343 40.068 50.6284 38.052 49.0937C37.4133 48.6011 37.0886 47.8731 37.0668 47.1451L37.0895 47.1678C39.1055 48.7026 41.4461 49.4971 43.6643 49.5198C45.1763 49.5198 46.6209 49.1611 47.8643 48.4112C51.7396 46.0706 53.151 41.5459 51.5375 37.3459C51.5935 37.4247 51.6381 37.5026 51.6828 37.5699C54.4609 42.1952 53.2289 47.6832 48.8268 50.3484Z" fill="black"/>
<path d="M42.8015 47.0216C42.8129 47.5029 42.8129 47.985 42.8129 48.4776C42.8129 51.7484 40.4277 54.8502 36.0369 54.8502H10.6129C8.41753 54.8502 7.01753 54.8502 7.01753 54.8502C5.77415 54.8502 4.91228 53.6515 5.31478 52.5315C5.8074 51.2102 7.33078 50.8287 7.92403 49.1829C10.3434 42.4296 9.48065 31.2856 8.29328 26.4241C8.1139 26.0094 7.45328 25.6069 7.24065 25.2149C3.1859 17.8902 19.3927 21.4856 24.1859 21.4856C28.2407 21.4856 31.9926 23.7484 35.0385 27.153C38.0958 30.5576 40.4592 35.0936 41.7358 39.641C42.2844 41.4216 42.5644 43.001 42.6878 44.5576C42.7665 45.3302 42.8111 46.0924 42.8111 46.8309C42.8129 46.8991 42.8015 46.9551 42.8015 47.0216Z" fill="#FF9D2D"/>
<path d="M31.7958 46.9911C30.9619 48.1023 27.5389 47.7996 24.9471 48.6536C22.1926 49.561 21.0026 51.437 20.7856 53.6236C20.7209 54.2781 21.2643 54.8468 21.9468 54.8468H36.0395C40.4311 54.8468 42.812 51.7493 42.812 48.4768C42.812 45.5115 42.7455 42.9005 41.7428 39.642" fill="#FF9D2D"/>
<path d="M42.3999 42.4918C41.2677 42.7814 40.0094 42.945 38.6383 42.8689C36.4998 42.7429 34.0463 42.0131 34.0839 41.4348C34.0962 40.9693 35.7324 40.8564 37.632 40.3401C38.7389 40.0505 40.0602 39.585 41.5074 38.843C41.8846 40.0628 42.1864 41.2834 42.3999 42.4918Z" fill="#EA6307"/>
<path d="M40.5125 36.0623C39.368 36.6538 38.0091 37.1193 36.4613 37.3083C34.335 37.5725 31.8063 37.296 31.731 36.7299C31.668 36.2644 33.2535 35.8488 35.0271 35.0061C36.1471 34.4776 37.4553 33.7103 38.8649 32.6034C39.4809 33.7225 40.0348 34.8793 40.5125 36.0623Z" fill="#EA6307"/>
<path d="M37.2041 29.9101C36.4367 30.5891 35.5311 31.2183 34.461 31.7345C32.5237 32.6655 30.0326 33.2063 29.7806 32.6909C29.5671 32.2753 30.9382 31.3828 32.347 30.0108C33.1397 29.2434 34.02 28.2616 34.888 26.9789C35.7192 27.8714 36.4866 28.8654 37.2041 29.9101Z" fill="#EA6307"/>
<path opacity="0.09" d="M42.7954 47.0199C42.8068 47.4977 42.8068 47.9868 42.8068 48.4759C42.8068 51.7511 40.4294 54.8451 36.0395 54.8451H32.0364C36.4263 54.8451 38.815 51.7511 38.815 48.4759C38.815 47.9868 38.8036 47.4977 38.8036 47.0199C38.8036 46.9631 38.815 46.8948 38.815 46.8266C38.815 46.0872 38.7695 45.3364 38.6899 44.5629C38.5648 43.0046 38.3031 41.4121 37.7571 39.6271L37.7458 39.6384C35.175 30.5516 28.294 21.4866 20.1845 21.4866C18.2166 21.4866 14.35 20.8837 10.7441 20.6676C15.0203 20.3263 21.4576 21.4866 24.1876 21.4866C32.2971 21.4866 39.1781 30.5516 41.7366 39.6384C42.2826 41.4243 42.567 43.0054 42.6921 44.5629C42.7718 45.3364 42.8059 46.0872 42.8059 46.8266C42.8068 46.8957 42.8068 46.9631 42.7954 47.0199Z" fill="black"/>
<path d="M22.5575 37.4299C22.5575 45.2227 21.3903 50.7684 21.0394 52.2367C20.6938 53.6822 19.6648 54.8486 18.179 54.8486L12.7532 54.8503C11.5115 54.8503 10.6497 53.6551 11.0522 52.5289C11.5465 51.2068 13.0174 50.8052 13.6614 49.1847C14.5207 46.9832 14.9293 43.9373 15.0308 40.7392C15.0526 40.0532 15.0605 39.3611 15.0553 38.6681" fill="#FF9D2D"/>
<path d="M15.7308 38.6672C15.7308 39.3619 15.7194 40.0672 15.6975 40.7619C15.5855 44.3573 15.1043 47.3472 14.2862 49.4305C13.8942 50.4272 13.2554 51.0099 12.6849 51.5253C12.2483 51.94 11.8677 52.2865 11.6769 52.7687C11.4757 53.2954 11.5535 53.8887 11.8677 54.3594C12.0357 54.5948 12.2483 54.7628 12.4609 54.852H10.6129C10.1649 54.068 10.0975 53.1274 10.4222 52.2874C10.7249 51.5148 11.2622 51.0222 11.7775 50.54C12.2815 50.0807 12.7523 49.644 13.0323 48.9388C13.7935 47.0015 14.2529 44.156 14.3649 40.7182C14.3763 40.0462 14.3877 39.3628 14.3877 38.6794C14.3763 38.2988 14.679 37.996 15.0483 37.996H15.0597C15.4289 37.9952 15.7194 38.297 15.7308 38.6672ZM32.1948 46.4512C31.9034 46.2385 31.4782 46.2945 31.2542 46.5859C30.9409 47.0007 29.5514 47.1792 28.3194 47.3367C27.1767 47.4714 25.8887 47.6394 24.7354 48.02C23.772 48.3333 22.9662 48.7813 22.2942 49.3308C22.7422 46.6542 23.2234 42.5434 23.2234 37.436C23.2234 37.0554 22.932 36.764 22.5514 36.764C22.1822 36.764 21.8794 37.0554 21.8794 37.436C21.8794 45.4108 20.636 51.0327 20.3902 52.0853C20.0988 53.284 19.3822 54.5493 18.5535 54.852H21.4883C21.4437 54.628 21.4095 54.2028 21.455 53.6874C21.6677 51.5148 22.911 50.036 25.1624 49.2967C26.1818 48.9493 27.3578 48.804 28.4892 48.6693C30.2024 48.4567 31.6812 48.2659 32.3304 47.3927C32.5535 47.1004 32.4975 46.6752 32.1948 46.4512Z" fill="#EA6307"/>
<path d="M33.6403 1.49279C32.1808 0.137412 25.6961 3.13954 23.1796 4.42141C21.2914 3.62779 19.2185 3.18679 17.0424 3.18679C14.8663 3.18679 12.7925 3.62691 10.9051 4.42141C8.3869 3.14041 1.90227 0.137412 0.442772 1.49279C-1.05698 2.88754 1.65027 9.92604 2.68627 12.3577C1.7404 14.3885 1.19702 16.6443 1.19702 19.0322C1.19702 27.783 8.29065 30.3748 17.0415 30.3748C25.7924 30.3748 32.886 27.7822 32.886 19.0322C32.886 16.6443 32.3426 14.3885 31.3968 12.3577C32.4336 9.92516 35.1409 2.88754 33.6403 1.49279Z" fill="#FF9D2D"/>
<path opacity="0.09" d="M31.3985 12.3577C32.3392 14.3851 32.8878 16.647 32.8878 19.0331C32.8878 27.7805 25.7872 30.3783 17.0398 30.3783C10.8912 30.3783 5.54842 29.0903 2.9278 25.2823C6.92655 28.0823 13.3884 28.4411 20.1644 27.7796C25.8878 27.2082 30.5358 22.5716 30.569 16.8263C30.5918 14.7211 30.1884 12.7383 29.4604 10.9017C29.2364 10.3531 29.225 9.74846 29.4377 9.18846C30.2777 7.10508 31.577 3.53246 31.7564 1.20321C32.6078 1.09121 33.2798 1.15858 33.6377 1.49458C35.1392 2.88321 32.4284 9.92783 31.3985 12.3577Z" fill="black"/>
<path d="M18.522 3.26206C18.3426 5.29731 17.9471 7.59593 17.0371 7.59593C16.1271 7.59593 15.7325 5.29731 15.5522 3.26206C16.0431 3.21393 16.534 3.19031 17.0371 3.19031C17.5402 3.19031 18.0311 3.21393 18.522 3.26206Z" fill="#EA6307"/>
<path d="M13.4821 7.46374C12.7514 7.73936 11.8056 6.00336 11.0994 4.35136C11.8896 4.02849 12.7156 3.76424 13.5661 3.57349C13.9484 5.29724 14.1882 7.18899 13.4821 7.46374Z" fill="#EA6307"/>
<path d="M22.9872 4.35146C22.281 6.00346 21.3352 7.73946 20.6045 7.46384C19.8984 7.18821 20.1259 5.32096 20.5092 3.58496C21.3597 3.76434 22.197 4.02771 22.9872 4.35146Z" fill="#EA6307"/>
<path d="M5.30079 8.39134C4.24028 9.56121 3.35391 10.8956 2.68716 12.3393C1.89966 10.5237 0.215285 6.17146 0.0297852 3.48083C1.89966 3.84133 4.33828 6.00696 5.30079 8.39134Z" fill="#F9D4D4"/>
<path opacity="0.09" d="M5.30341 8.38871C4.96828 8.75709 4.64366 9.15696 4.35141 9.55771C3.53941 7.70709 1.87253 6.01921 0.302785 5.25009C0.16191 4.61134 0.0647847 4.01634 0.0324097 3.47559C1.89441 3.84396 4.34003 6.00784 5.30341 8.38871Z" fill="black"/>
<path d="M34.0629 3.48083C33.866 6.17146 32.1816 10.5237 31.3941 12.3393C30.7274 10.8956 29.841 9.56121 28.7805 8.39134C29.743 6.00696 32.193 3.84133 34.0629 3.48083Z" fill="#F9D4D4"/>
<path opacity="0.09" d="M28.7814 8.38871C29.1165 8.75709 29.4411 9.15696 29.7334 9.55771C30.5454 7.70709 32.2114 6.01921 33.7811 5.25009C33.922 4.61134 34.0191 4.01634 34.0515 3.47559C32.1904 3.84396 29.7439 6.00784 28.7814 8.38871Z" fill="black"/>
<path d="M8.73867 20.4725C8.58204 20.4725 8.42542 20.4191 8.29942 20.3097C8.28542 20.2975 7.52504 19.6614 6.43392 19.5441C5.30429 19.426 4.54217 19.7112 4.53517 19.7139C4.19042 19.8486 3.80017 19.6815 3.66454 19.3367C3.52804 18.9937 3.69167 18.6052 4.03467 18.467C4.07754 18.4486 5.09254 18.0479 6.57654 18.208C8.10867 18.3725 9.13854 19.258 9.18054 19.2947C9.46054 19.5397 9.48854 19.9641 9.24529 20.2432C9.11142 20.3946 8.92504 20.4725 8.73867 20.4725ZM5.64992 23.5962C5.65342 23.5927 6.08304 23.2165 6.71479 23.08C7.56967 22.8927 8.15154 23.0782 8.17954 23.087C8.52779 23.2112 8.90929 23.031 9.03617 22.6845C9.16392 22.3371 8.98454 21.9504 8.63542 21.8226C8.54267 21.7876 7.68604 21.4954 6.43042 21.7666C5.44867 21.9792 4.81429 22.5384 4.74517 22.6022C4.47304 22.8516 4.45467 23.2716 4.70142 23.5464C4.83354 23.6925 5.01642 23.7677 5.20017 23.7677C5.35942 23.7669 5.52042 23.7109 5.64992 23.5962Z" fill="#1D1E1E"/>
<path d="M25.3462 20.4725C25.1589 20.4725 24.9734 20.3946 24.8396 20.2432C24.5954 19.9641 24.6243 19.5397 24.9043 19.2947C24.9472 19.258 25.9762 18.3716 27.5074 18.208C28.9906 18.0479 30.0056 18.4486 30.0493 18.467C30.3923 18.6061 30.5594 18.9972 30.4194 19.342C30.2803 19.6867 29.8909 19.853 29.5444 19.7121C29.5418 19.7121 28.7876 19.4269 27.6501 19.545C26.5546 19.6622 25.7959 20.3019 25.7889 20.308C25.6612 20.4182 25.5037 20.4725 25.3462 20.4725ZM29.3799 23.5516C29.6302 23.2769 29.6118 22.8525 29.3379 22.6022C29.2688 22.5384 28.6344 21.9792 27.6527 21.7657C26.3971 21.4962 25.5404 21.7876 25.4477 21.8226C25.1021 21.9495 24.9262 22.3292 25.0487 22.6757C25.1712 23.024 25.5527 23.2104 25.9027 23.087C25.9079 23.0861 26.4968 22.8936 27.3683 23.0791C28.0001 23.2165 28.4306 23.5927 28.4306 23.5927C28.5601 23.7109 28.7228 23.7686 28.8847 23.7686C29.0658 23.7695 29.2469 23.696 29.3799 23.5516Z" fill="#1D1E1E"/>
<path d="M20.6588 23.7791C20.3875 23.5245 19.9623 23.5393 19.7094 23.8123C19.5747 23.955 19.0987 24.4152 18.494 24.3067C18.165 24.249 17.9016 24.046 17.7231 23.864L17.7013 20.1592C17.6987 19.7882 17.3968 19.4898 17.0258 19.4916C16.6548 19.4933 16.3564 19.7961 16.3582 20.1671L16.38 23.8412C16.2006 24.0285 15.9285 24.2463 15.5882 24.3058C14.9958 24.4187 14.5058 23.9532 14.3719 23.8088C14.1181 23.5411 13.6929 23.5262 13.4217 23.7791C13.1513 24.0337 13.1382 24.4598 13.3919 24.7293C13.615 24.9656 14.3605 25.6647 15.4079 25.6647C15.54 25.6647 15.6783 25.6533 15.82 25.6288C16.324 25.5405 16.723 25.3068 17.0424 25.0443C17.4134 25.3445 17.8282 25.5527 18.2622 25.6288C18.4057 25.6542 18.543 25.6647 18.6778 25.6647C19.7269 25.6647 20.4707 24.9647 20.6912 24.7276C20.9458 24.4572 20.93 24.032 20.6588 23.7791Z" fill="#1D1E1E"/>
<path d="M10.969 15.0483C11.8128 15.0483 12.4968 14.3643 12.4968 13.5205C12.4968 12.6768 11.8128 11.9928 10.969 11.9928C10.1253 11.9928 9.44128 12.6768 9.44128 13.5205C9.44128 14.3643 10.1253 15.0483 10.969 15.0483Z" fill="#1D1E1E"/>
<path d="M23.5944 15.0483C24.4382 15.0483 25.1222 14.3643 25.1222 13.5205C25.1222 12.6768 24.4382 11.9928 23.5944 11.9928C22.7506 11.9928 22.0667 12.6768 22.0667 13.5205C22.0667 14.3643 22.7506 15.0483 23.5944 15.0483Z" fill="#1D1E1E"/>
<path d="M17.0415 21.1602C16.1464 21.1602 14.6642 19.3105 15.064 18.4897C15.4158 17.7705 16.3862 17.5841 17.0415 17.5893C17.6969 17.5841 18.6673 17.7705 19.019 18.4897C19.4189 19.3113 17.9367 21.1602 17.0415 21.1602Z" fill="#F9D4D4"/>
<path opacity="0.09" d="M17.0459 21.1593C16.5909 21.1593 15.9854 20.6833 15.5522 20.1093C15.8226 20.3149 16.093 20.4444 16.3319 20.4444C17.1972 20.4444 18.6156 18.7023 18.3234 17.8474C18.6156 17.9883 18.8755 18.1825 19.0164 18.4862C19.4162 19.3087 17.9331 21.1593 17.0459 21.1593Z" fill="black"/>
</g>
<defs>
<clipPath id="clip0_2004_146">
<rect width="56" height="56" fill="white"/>
</clipPath>
</defs>
</svg>
