<svg width="56" height="56" viewBox="0 0 56 56" fill="none" xmlns="http://www.w3.org/2000/svg">
<path d="M33.1997 39.7293C33.4798 39.64 35.7046 38.9802 37.6114 40.7706C38.3314 41.4466 38.7776 42.2575 39.0535 42.9587C39.3385 43.683 38.7785 44.4626 38.0002 44.4626H29.7071C28.9472 44.4626 28.4078 43.7218 28.6413 42.9986L29.3297 40.8654C30.6196 40.4866 31.9097 40.1079 33.1997 39.7293Z" fill="#F7BC23"/>
<path opacity="0.09" d="M36.5005 42.8851C36.3381 42.3237 36.6108 41.7297 37.154 41.514C37.4591 41.3928 37.7676 41.2629 37.9875 41.1593C37.8643 41.0248 37.7411 40.8904 37.6067 40.7673C35.7027 38.9753 33.4851 39.6361 33.2051 39.7257C31.9221 40.1018 30.6504 40.4777 29.3786 40.8537C29.3598 40.8587 29.3436 40.8577 29.3246 40.8633L28.6413 43.0025C28.4062 43.7193 28.9437 44.4585 29.7053 44.4585H35.5853C36.7151 44.4584 36.7099 43.6088 36.5005 42.8851Z" fill="black"/>
<path d="M34.1363 44.4576H25.8565C25.0966 44.4576 24.5603 43.7201 24.7949 42.9938L24.9961 42.3569L25.4766 40.8708C26.7728 40.4908 28.0577 40.1109 29.3427 39.731C29.6221 39.6416 31.8457 38.9823 33.7452 40.7701C34.2257 41.2283 34.5833 41.7311 34.8403 42.2227C34.9855 42.4798 35.0973 42.7256 35.1867 42.9603C35.4996 43.776 35.0079 44.4576 34.1363 44.4576Z" fill="#FFD731"/>
<path opacity="0.09" d="M33.7452 40.7703C31.8457 38.9825 29.622 39.6417 29.3427 39.7311C28.2446 40.0558 27.1439 40.3804 26.0387 40.7052C26.0376 40.7045 26.0365 40.7039 26.0352 40.7032C25.8565 40.7591 25.6665 40.815 25.4766 40.8709L24.9961 42.357L24.7949 42.9939C24.5603 43.7202 25.0966 44.4577 25.8565 44.4577H27.3315C26.521 44.2707 26.3582 43.5963 26.3544 43.0991C26.3522 42.7948 26.6176 42.5581 26.9206 42.5865C27.6232 42.6524 28.9267 42.7593 29.9797 42.7593C31.7227 42.7593 33.343 42.5805 34.8403 42.2229C34.5833 41.7312 34.2257 41.2284 33.7452 40.7703Z" fill="black"/>
<path d="M16.6553 38.5972C9.45789 47.7747 2.96487 53.9669 3.97427 55.352C6.47265 58.7805 21.6591 47.9679 27.6289 37.8827C24.6202 38.1753 19.664 38.3047 16.6553 38.5972Z" fill="#F72121"/>
<path opacity="0.09" d="M26.2389 37.9897C25.9625 38.3802 25.6551 38.7686 25.3569 39.1577C24.9122 39.3489 24.4745 39.5162 24.0549 39.636C23.1029 39.9048 22.2293 39.9944 21.4565 39.8937C20.3589 39.7481 19.6757 39.132 19.3509 38.3929C18.3654 38.4489 17.447 38.5161 16.6517 38.5945C14.9717 40.7449 13.3253 42.7273 11.8133 44.5305C13.8965 44.4969 16.6517 42.2569 17.1557 41.6633C16.9877 42.6377 16.8757 43.8473 17.7157 44.4185C17.8429 44.5203 18.3887 44.6613 19.0093 44.7242C19.4912 44.773 19.6807 45.3694 19.3238 45.6968C13.3084 51.2148 6.56633 55.0804 4.36527 53.6921C3.90607 54.4761 3.74918 55.0361 3.97327 55.3498C5.97816 58.105 16.2149 51.6426 23.2373 43.7578C24.9173 41.8762 26.4181 39.905 27.5717 37.9674C27.5941 37.9338 27.6053 37.9114 27.6277 37.8778C27.202 37.9225 26.7317 37.9561 26.2389 37.9897Z" fill="black"/>
<path d="M16.6944 37.1327C7.42986 45.4665 2.38181 46.7872 3.73211 48.2525C5.93938 50.6476 19.3259 45.5146 26.098 37.4863C23.9538 37.4056 21.8096 37.3251 19.6655 37.2444C18.6752 37.2072 17.6848 37.17 16.6944 37.1327Z" fill="#20ABD1"/>
<path opacity="0.09" d="M26.0931 37.4857C19.3283 45.5161 5.94433 50.6457 3.72673 48.2489C3.31233 47.8009 3.50273 47.3641 4.23064 46.7594C7.24344 48.081 17.8162 43.9594 24.4579 37.4186C25.0068 37.4409 25.5444 37.4633 26.0931 37.4857Z" fill="black"/>
<path d="M49.6893 15.1491C48.6573 16.4239 46.3507 17.7593 44.1559 17.9377C41.0047 16.8574 38.2974 14.3007 38.7844 12.2082C39.2221 10.3272 41.294 9.44928 41.8467 9.24304C43.6992 8.55214 46.2795 8.77081 47.8257 10.5798C49.1952 12.1823 49.7368 14.7285 49.6893 15.1491Z" fill="#F7BC23"/>
<path opacity="0.09" d="M49.6908 15.152C49.3324 15.6 48.8172 16.0592 48.19 16.4625C47.1148 15.152 45.3676 13.3601 41.9516 12.1392C41.6268 12.0272 42.6012 10.2128 43.9228 8.88C45.3228 8.88 46.79 9.3952 47.8204 10.5824C49.198 12.1841 49.7356 14.7264 49.6908 15.152Z" fill="black"/>
<path d="M50.9948 17.1092C49.8716 17.2429 49.0576 13.2559 42.9991 11.0922C42.4943 10.9119 45.179 6.5528 47.4 6.39941C54.7279 9.64531 52.3972 16.9423 50.9948 17.1092Z" fill="#FFD731"/>
<path d="M34.7607 1.18747C40.753 -2.03332 45.6948 2.03211 46.9157 4.68773C47.2904 5.50279 47.4 6.39941 47.4 6.39941C45.7144 7.64514 41.6771 12.5588 44.156 17.9379C44.9488 19.9946 47.0937 28.3411 42.9802 35.1083C36.1603 44.9761 22.9299 40.1387 19.775 39.9812C27.8591 29.2584 23.3828 29.416 27.0819 18.2302C28.4529 14.0839 28.7506 4.41779 34.7607 1.18747Z" fill="#F72121"/>
<path d="M44.1576 17.9365C42.2496 13.8027 44.1966 9.93656 45.965 7.81109C45.6495 3.09248 39.8225 1.68338 37.5069 4.72724C35.1546 7.81949 36.8383 15.3591 44.1576 17.9365Z" fill="#F4F4F4"/>
<path d="M41.4794 8.25216C42.2111 8.25216 42.8042 7.65905 42.8042 6.92741C42.8042 6.19577 42.2111 5.60266 41.4794 5.60266C40.7478 5.60266 40.1547 6.19577 40.1547 6.92741C40.1547 7.65905 40.7478 8.25216 41.4794 8.25216Z" fill="#1D1E1E"/>
<path opacity="0.09" d="M47.3975 6.3976C47.3975 6.3976 47.2855 5.5016 46.9159 4.684C45.9191 2.5224 42.447 -0.591201 37.9447 0.103199C41.1927 0.595999 43.6007 2.9368 44.3959 4.684C44.7871 5.55629 44.5882 6.56376 43.931 7.25799C42.0753 9.21834 39.5501 13.4137 41.6406 17.9336C42.2127 19.4396 43.5099 24.3002 42.558 29.4459C41.9174 32.9089 39.5148 35.8763 36.1934 37.0472C36.0486 37.0983 35.9032 37.1469 35.7574 37.1931C34.7469 37.5139 33.8961 36.3863 34.4807 35.5019C36.2075 32.8899 37.5718 29.8036 38.2227 26.3244C38.4665 25.0207 37.7295 23.7252 36.4982 23.2325L27.4837 19.6249C27.2149 19.5913 26.9237 19.6025 26.6325 19.6585C23.952 28.7854 27.029 29.6657 21.1393 38.1012C20.7249 38.6932 20.2817 39.3099 19.7754 39.9826C22.9338 40.1394 36.161 44.9778 42.9818 35.1106C45.2018 31.4628 45.5985 27.3383 45.3691 24.0076C45.3694 24.0028 45.3701 23.9818 45.3701 23.9706C45.1685 21.137 44.5189 18.8745 44.1605 17.9338C41.6742 12.5576 45.7175 7.6408 47.3975 6.3976Z" fill="black"/>
<path d="M27.4863 16.7366C21.5217 16.0118 10.1567 37.7877 11.6369 40.7195C13.2192 43.8537 18.2365 39.8408 18.9321 39.033C18.7156 40.257 18.5972 41.8818 20.3984 42.1214C25.6051 42.8137 37.3263 34.4759 38.534 21.1551" fill="#F72121"/>
<path d="M11.6409 40.7174C13.219 43.8534 18.2346 39.8429 18.9281 39.0288C18.717 40.255 18.5964 41.8833 20.3955 42.1247C25.2806 42.7779 35.8848 35.4807 38.1865 23.59C33.9649 29.8217 27.8483 33.3136 24.5309 32.3407C23.0569 31.9084 22.5969 30.9676 22.808 29.7515C21.6911 31.6739 15.6338 33.0852 15.5208 29.5403C12.7969 34.5661 10.9877 39.4409 11.6409 40.7174Z" fill="#63E763"/>
<path d="M11.641 40.7173C13.2191 43.8533 18.2347 39.8429 18.9281 39.0288C18.7171 40.255 18.5965 41.8833 20.3956 42.1246C24.9187 42.7277 34.357 36.5059 37.5533 26.1329C33.4223 33.6212 27.0093 37.7632 23.23 37.2606C21.4309 37.0193 20.7375 35.5209 20.9485 34.2946C19.6071 35.7556 13.1371 37.9918 14.2745 31.9627C12.2742 36.0535 11.0982 39.6519 11.641 40.7173Z" fill="#30C3E5"/>
<path opacity="0.09" d="M32.7012 35.0217C28.6132 39.8937 23.4164 42.5257 20.4036 42.1225C18.6003 41.8873 18.7124 40.252 18.9364 39.0313C18.242 39.8377 13.2243 43.8585 11.634 40.7225C10.3907 38.2585 18.1972 22.5337 24.2564 17.9641C19.0036 24.3257 13.818 35.4697 14.8483 37.5081C15.9328 39.6617 18.6388 38.4401 20.4528 37.2022C21.0538 36.7921 21.9194 37.0534 22.1257 37.7511C22.2979 38.3335 22.7184 38.7915 23.6068 38.9081C25.8692 39.2105 29.3747 37.7994 32.7012 35.0217Z" fill="black"/>
</svg>
