<svg width="56" height="56" viewBox="0 0 56 56" fill="none" xmlns="http://www.w3.org/2000/svg">
<g clip-path="url(#clip0_2004_244)">
<path d="M12.4494 0V1.95971C12.4465 3.85636 12.7077 5.74454 13.2264 7.56918L14.3634 11.5681L23.0442 2.90427L21.5721 2.16585C18.7408 0.745011 15.6172 0.00376506 12.4494 0Z" fill="#F7A116"/>
<path d="M38.0155 2.18793L36.5382 2.92258L45.2011 11.6095L46.3528 7.61432C46.8761 5.79109 47.1434 3.90385 47.1463 2.00673V0.0470196C43.978 0.0423132 40.8516 0.775559 38.0155 2.18793Z" fill="#F7A116"/>
<path d="M14.8119 40.5351C13.0659 40.3195 11.5133 39.3204 10.5937 37.8205C9.67451 36.3206 9.48861 34.4837 10.0887 32.8299C10.6586 31.3926 10.5452 29.7741 9.77946 28.4309L9.59733 28.1273C5.33857 28.6723 2.11945 32.2505 2.02626 36.5427C1.93261 40.8349 4.99313 44.55 9.22365 45.28C13.4546 46.0099 17.583 43.5354 18.9333 39.4601C17.7477 40.3327 16.2723 40.7172 14.8119 40.5351Z" fill="#EE9200"/>
<path d="M48.0414 51.1314L49.7234 43.1951C50.2609 40.6589 49.626 38.0158 47.9953 36.0006C46.3645 33.9853 43.9121 32.8125 41.3198 32.8087L18.1873 32.7767C15.5946 32.7734 13.1388 33.9392 11.5024 35.9502C9.86652 37.9612 9.22411 40.6024 9.75451 43.1401L11.4149 51.0843H10.451C7.78962 51.0806 5.62895 53.2351 5.62518 55.897L17.1914 55.9121L42.2517 55.9479L53.818 55.9634C53.8217 53.302 51.6672 51.1413 49.0053 51.1375L48.0414 51.1314Z" fill="#F7A116"/>
<path d="M54.0801 56.0001C54.0801 53.3382 51.9227 51.1808 49.2608 51.1808H48.297L49.9682 43.2421C50.6539 39.9943 49.4058 36.6425 46.7627 34.6343C42.1016 46.8877 30.2586 52.9871 20.355 56.0001H54.0801Z" fill="#F58F00"/>
<path d="M47.3331 21.3013H51.1885C51.1885 23.9627 49.0312 26.1205 46.3693 26.1205H42.5138C42.5138 23.4586 44.6717 21.3013 47.3331 21.3013Z" fill="#348FD9"/>
<path d="M42.5138 26.1206H46.3693C49.0312 26.1206 51.1885 28.278 51.1885 30.9399H47.3331C44.6717 30.9399 42.5138 28.782 42.5138 26.1206Z" fill="#3086CD"/>
<path d="M42.5138 20.3374H17.4536V24.2041L19.3813 56.0001H27.0922V41.5422H32.8753V56.0001H40.5861L42.5138 24.2041V20.3374Z" fill="#FFB531"/>
<path d="M42.5138 21.3013H17.4536V24.2041C17.6809 28.1325 19.7729 31.715 23.0828 33.8427C24.3677 34.6658 25.685 35.4372 27.0343 36.1563C27.0931 36.1869 27.15 36.2217 27.2089 36.2523L29.9268 37.6868L32.8183 36.0674L35.9259 34.3326L36.3114 34.1147C39.9145 32.0595 42.2446 28.332 42.5138 24.1928V21.3013Z" fill="#348FD9"/>
<path d="M42.5138 21.3013H17.4536V24.2041C17.6809 28.1325 19.7729 31.715 23.0828 33.8427C24.3677 34.6658 25.685 35.4372 27.0343 36.1563C27.0931 36.1869 27.15 36.2217 27.2089 36.2523L29.9268 37.6868L32.8183 36.0674L35.9259 34.3326L36.3114 34.1147C39.9145 32.0595 42.2446 28.332 42.5138 24.1928V21.3013Z" fill="#3086CD"/>
<path d="M34.4175 29.0121H25.5499C24.674 29.0121 23.8241 28.7142 23.1402 28.1669L16.0078 22.4576C15.0943 21.7263 14.5625 20.6193 14.562 19.4489V12.2957C14.562 11.2731 14.9687 10.2923 15.6915 9.56936L21.1434 4.11756C21.8662 3.39419 22.8475 2.98804 23.8702 2.98804H36.0977C37.1204 2.98804 38.1012 3.39419 38.8241 4.11756L44.2759 9.56936C44.9992 10.2923 45.4054 11.2731 45.4054 12.2957V19.4489C45.4054 20.6193 44.8736 21.7263 43.9596 22.4576L36.8272 28.1659C36.1434 28.7133 35.2934 29.0121 34.4175 29.0121Z" fill="#FFB531"/>
<path d="M38.1765 13.5905C35.1578 13.6446 32.4889 15.5648 31.478 18.4097H28.4899C27.479 15.5648 24.8101 13.6446 21.7909 13.5905C18.8236 13.6403 16.1871 15.4975 15.1404 18.2747C14.5164 19.8517 14.9959 21.6514 16.3222 22.7085L23.1402 28.1669C23.8241 28.7142 24.674 29.0121 25.5499 29.0121H34.4175C35.2934 29.0121 36.1434 28.7142 36.8272 28.1669L43.6495 22.7094C44.9757 21.6524 45.4553 19.8527 44.8312 18.2756C43.7841 15.4965 41.1457 13.6389 38.1765 13.5905Z" fill="#FFD896"/>
<path d="M29.0199 14.5543H30.9476C32.0121 14.5543 32.8753 15.4175 32.8753 16.482C32.8753 17.5466 32.0121 18.4097 30.9476 18.4097H29.0199C27.9553 18.4097 27.0921 17.5466 27.0921 16.482C27.0921 15.4175 27.9553 14.5543 29.0199 14.5543Z" fill="#2E3E51"/>
<path d="M32.8753 22.2651C32.8753 23.862 31.5806 25.1567 29.9837 25.1567C28.3869 25.1567 27.0921 23.862 27.0921 22.2651L29.9837 21.3013L32.8753 22.2651Z" fill="#E94F4F"/>
<path d="M25.1644 11.6627C25.1644 12.7273 24.3013 13.5904 23.2367 13.5904C22.1722 13.5904 21.309 12.7273 21.309 11.6627C21.309 10.5981 22.1722 9.73499 23.2367 9.73499C24.3013 9.73499 25.1644 10.5981 25.1644 11.6627Z" fill="#2E3E51"/>
<path d="M38.6584 11.6627C38.6584 12.7273 37.7953 13.5904 36.7307 13.5904C35.6661 13.5904 34.803 12.7273 34.803 11.6627C34.803 10.5981 35.6661 9.73499 36.7307 9.73499C37.7953 9.73499 38.6584 10.5981 38.6584 11.6627Z" fill="#2E3E51"/>
<path d="M22.2729 5.87964H24.2006V7.80735H22.2729V5.87964Z" fill="#FFD896"/>
<path d="M35.7668 5.87964H37.6946V7.80735H35.7668V5.87964Z" fill="#FFD896"/>
<path d="M35.9287 18.8385L34.7183 20.6566C34.5004 20.9804 34.1098 21.1423 33.7267 21.067L30.9476 20.5107V18.4098H29.0199V20.5107L26.2412 21.067C25.8581 21.1437 25.4671 20.9813 25.2501 20.6566L24.0387 18.8385L22.4348 19.9083L23.6466 21.7254C24.2952 22.702 25.4703 23.1886 26.6201 22.957L29.9837 22.2826L33.3478 22.957C34.4971 23.1914 35.6741 22.7038 36.3213 21.7254L37.5327 19.9083L35.9287 18.8385Z" fill="#2E3E51"/>
</g>
<defs>
<clipPath id="clip0_2004_244">
<rect width="56" height="56" fill="white"/>
</clipPath>
</defs>
</svg>
